<svg width="565" height="361" viewBox="0 0 565 361" fill="none" xmlns="http://www.w3.org/2000/svg">
<g clip-path="url(#clip0_1_167)">
<path d="M421.632 88.2612C409.095 61.1657 381.52 34.3355 367.202 22.7562L365.781 24.5192C379.945 35.9787 407.22 62.4922 419.578 89.2112L421.632 88.2612V88.2612Z" fill="#377464"/>
<path d="M421.631 88.2605C409.094 61.165 381.519 34.3348 367.201 22.7555L365.78 24.5185C379.944 35.978 407.219 62.4916 419.577 89.2105L421.631 88.2605V88.2605Z" fill="#114C3A"/>
<path d="M371.334 27.6257C361.286 28.55 352.754 18.1603 351.461 8.09576C360.679 8.94303 371.667 19.213 371.334 27.6257Z" fill="#377464"/>
<path d="M371.333 27.6255C361.286 28.5498 352.753 18.1601 351.461 8.09555C360.678 8.94282 371.667 19.2127 371.333 27.6255Z" fill="#114C3A"/>
<path d="M371.333 27.6255C361.286 28.5498 352.753 18.1601 351.461 8.09555C360.678 8.94282 371.667 19.2127 371.333 27.6255Z" fill="#4F9982"/>
<path d="M382.39 39.5645C376.348 45.8035 364.957 43.818 358.462 37.9727C364.949 33.3512 377.889 33.8818 382.39 39.5645Z" fill="#377464"/>
<path d="M382.392 39.5645C376.349 45.8035 364.958 43.818 358.463 37.9727C364.95 33.3512 377.89 33.8818 382.392 39.5645Z" fill="#114C3A"/>
<path d="M382.392 39.5645C376.349 45.8035 364.958 43.818 358.463 37.9727C364.95 33.3512 377.89 33.8818 382.392 39.5645Z" fill="#4F9982"/>
<path d="M396.402 54.1735C389.547 59.5138 378.541 55.945 372.927 49.261C379.996 45.5981 392.739 47.9259 396.402 54.1735Z" fill="#377464"/>
<path d="M396.401 54.1734C389.546 59.5138 378.54 55.945 372.926 49.261C379.995 45.598 392.738 47.9259 396.401 54.1734Z" fill="#114C3A"/>
<path d="M396.401 54.1734C389.546 59.5138 378.54 55.945 372.926 49.261C379.995 45.598 392.738 47.9259 396.401 54.1734Z" fill="#4F9982"/>
<path d="M412.926 75.7239C405.001 81.2183 393.011 76.5883 387.2 68.8259C395.271 65.1972 409.246 68.5692 412.926 75.7239Z" fill="#377464"/>
<path d="M412.927 75.7231C405.002 81.2175 393.012 76.5875 387.2 68.8252C395.271 65.1964 409.247 68.5684 412.927 75.7231Z" fill="#114C3A"/>
<path d="M412.927 75.7231C405.002 81.2175 393.012 76.5875 387.2 68.8252C395.271 65.1964 409.247 68.5684 412.927 75.7231Z" fill="#4F9982"/>
<path d="M405.377 64.4089C413.148 58.5036 412.455 45.5293 406.806 37.5016C400.79 44.1258 399.643 58.6235 405.377 64.4089Z" fill="#377464"/>
<path d="M405.377 64.4091C413.148 58.5038 412.455 45.5295 406.806 37.5018C400.79 44.1259 399.643 58.6237 405.377 64.4091Z" fill="#114C3A"/>
<path d="M405.377 64.4091C413.148 58.5038 412.455 45.5295 406.806 37.5018C400.79 44.1259 399.643 58.6237 405.377 64.4091Z" fill="#4F9982"/>
<path d="M387.21 42.4489C394.98 36.5437 394.287 23.5693 388.639 15.5417C382.622 22.1658 381.475 36.6635 387.21 42.4489Z" fill="#377464"/>
<path d="M387.209 42.4491C394.98 36.5439 394.287 23.5695 388.639 15.5419C382.622 22.166 381.475 36.6637 387.209 42.4491Z" fill="#114C3A"/>
<path d="M387.209 42.4491C394.98 36.5439 394.287 23.5695 388.639 15.5419C382.622 22.166 381.475 36.6637 387.209 42.4491Z" fill="#4F9982"/>
<path d="M442.129 345.24C436.771 346.259 431.26 347.089 425.611 347.705C410.669 349.331 394.767 349.468 378.027 347.825C376.282 347.654 374.553 347.491 372.833 347.337C357.505 345.934 343.281 345.052 329.99 344.598C324.324 344.393 318.821 344.273 313.481 344.213C290.305 343.948 270.133 344.924 252.041 346.379C198.056 350.7 162.556 359.336 120.791 352.395C64.4609 343.024 0 306.163 0 249.242C0 212.621 36.1074 198.252 60.9263 199.724C65.9843 200.015 70.563 200.965 74.2858 202.531C74.3029 202.531 74.3115 202.531 74.3115 202.531C31.7341 143.325 18.289 49.2953 123.111 9.03716C188.427 -16.0471 242.285 19.6494 274.952 52.265C296.767 74.0458 309.133 94.4573 309.133 94.4573L373.175 141.476L376.846 144.172L391.704 155.076C393.022 153.141 394.656 151.25 396.582 149.436C408.349 138.276 430.823 129.512 455.642 127.869C501.806 124.779 556.057 146.252 564.572 222.489C570.041 271.536 522.055 330.066 442.129 345.24V345.24Z" fill="#EDEDC3"/>
<path d="M442.129 345.241C436.772 346.259 431.26 347.089 425.612 347.706C410.669 349.332 394.768 349.469 378.028 347.825C376.282 347.654 374.553 347.492 372.833 347.338C360.475 322.399 347.278 293.198 343.059 274.618C337.445 249.859 358.977 186.938 376.856 144.164L391.713 155.067C393.031 153.133 394.665 151.242 396.591 149.427C408.359 138.267 430.833 129.504 455.652 127.861C501.815 124.771 556.066 146.244 564.581 222.481C570.05 271.528 522.064 330.058 442.138 345.232L442.129 345.241Z" fill="#DBDAAF"/>
<path d="M489.961 240.462L488.249 239.367C505.101 213.033 510.929 172.09 511.725 152.046L513.753 152.123C512.957 172.364 507.043 213.752 489.961 240.453V240.462Z" fill="#17C690"/>
<path d="M489.962 240.462L488.25 239.367C505.101 213.033 510.929 172.09 511.725 152.047L513.754 152.124C512.958 172.364 507.044 213.752 489.962 240.454V240.462Z" fill="#0AA370"/>
<path d="M513.044 157.96C508.816 153.878 508.2 147.45 509.945 141.579C510.887 138.413 512.53 135.409 514.661 133.03C517.1 136.445 518.161 141.579 517.87 146.423C517.571 151.165 515.962 155.632 513.044 157.951V157.96Z" fill="#17C690"/>
<path d="M513.043 157.96C508.815 153.878 508.199 147.451 509.945 141.58C510.886 138.413 512.53 135.409 514.661 133.03C517.1 136.445 518.161 141.58 517.87 146.424C517.57 151.165 515.961 155.632 513.043 157.952V157.96Z" fill="#0AA370"/>
<path opacity="0.75" d="M517.862 146.431C516.92 147.313 515.833 147.826 514.618 147.801C511.734 147.741 510.433 144.959 509.945 141.587C510.887 138.421 512.53 135.417 514.661 133.038C517.1 136.452 518.161 141.587 517.87 146.431H517.862Z" fill="#FFF983"/>
<path d="M508.105 187.007C503.15 186.202 499.581 181.991 497.955 177.028C497.074 174.349 496.757 171.439 497.099 168.735C500.471 169.941 503.724 173.022 505.872 176.566C507.968 180.032 509.021 183.951 508.105 187.007Z" fill="#17C690"/>
<path d="M508.106 187.006C503.15 186.202 499.582 181.991 497.956 177.028C497.074 174.349 496.757 171.439 497.1 168.735C500.472 169.941 503.724 173.022 505.872 176.565C507.969 180.031 509.021 183.951 508.106 187.006Z" fill="#0AA370"/>
<path opacity="0.75" d="M505.872 176.565C505.641 177.644 505.127 178.534 504.263 179.107C502.209 180.468 499.941 179.159 497.956 177.028C497.074 174.349 496.757 171.439 497.1 168.735C500.472 169.941 503.724 173.022 505.872 176.565Z" fill="#FFF983"/>
<path d="M504.126 204.748C499.359 203.182 496.5 198.458 495.67 193.297C495.225 190.507 495.362 187.589 496.124 184.97C499.265 186.69 501.986 190.251 503.561 194.085C505.093 197.842 505.512 201.873 504.126 204.748V204.748Z" fill="#17C690"/>
<path d="M504.126 204.749C499.359 203.183 496.501 198.458 495.671 193.298C495.226 190.508 495.363 187.589 496.124 184.971C499.265 186.691 501.987 190.251 503.561 194.085C505.093 197.842 505.513 201.873 504.126 204.749V204.749Z" fill="#0AA370"/>
<path opacity="0.75" d="M503.561 194.085C503.159 195.112 502.517 195.908 501.576 196.344C499.333 197.363 497.296 195.711 495.679 193.298C495.234 190.508 495.371 187.589 496.133 184.971C499.273 186.691 501.995 190.251 503.57 194.085H503.561Z" fill="#FFF983"/>
<path d="M495.61 226.64C490.843 225.074 487.985 220.35 487.155 215.189C486.71 212.399 486.847 209.481 487.608 206.862C490.749 208.59 493.471 212.142 495.045 215.976C496.577 219.733 496.997 223.764 495.61 226.64Z" fill="#17C690"/>
<path d="M495.61 226.64C490.843 225.074 487.985 220.349 487.154 215.189C486.709 212.399 486.846 209.48 487.608 206.862C490.749 208.59 493.471 212.142 495.045 215.976C496.577 219.733 496.997 223.764 495.61 226.64Z" fill="#0AA370"/>
<path opacity="0.75" d="M495.037 215.976C494.634 217.003 493.993 217.799 493.051 218.235C490.809 219.254 488.772 217.602 487.154 215.189C486.709 212.399 486.846 209.48 487.608 206.862C490.749 208.59 493.471 212.142 495.045 215.976H495.037Z" fill="#FFF983"/>
<path d="M510.69 173.818C515.645 174.631 520.361 171.773 523.485 167.579C525.171 165.32 526.395 162.658 526.934 159.988C523.348 160.065 519.291 161.956 516.125 164.627C513.027 167.245 510.793 170.635 510.69 173.81V173.818Z" fill="#17C690"/>
<path d="M510.69 173.818C515.645 174.631 520.361 171.773 523.484 167.579C525.17 165.32 526.394 162.658 526.933 159.988C523.348 160.065 519.291 161.957 516.124 164.627C513.026 167.246 510.793 170.635 510.69 173.81V173.818Z" fill="#0AA370"/>
<path opacity="0.75" d="M516.126 164.634C516.007 165.73 516.212 166.731 516.845 167.553C518.36 169.496 520.928 168.973 523.486 167.587C525.172 165.328 526.396 162.666 526.935 159.996C523.35 160.073 519.293 161.964 516.126 164.634V164.634Z" fill="#FFF983"/>
<path d="M507.232 192.929C512.188 193.742 516.903 190.884 520.027 186.69C521.713 184.431 522.937 181.769 523.476 179.099C519.89 179.176 515.833 181.067 512.667 183.738C509.569 186.356 507.335 189.745 507.232 192.921V192.929Z" fill="#17C690"/>
<path d="M507.232 192.929C512.187 193.742 516.903 190.884 520.026 186.69C521.712 184.431 522.936 181.769 523.475 179.099C519.889 179.176 515.833 181.067 512.666 183.738C509.568 186.356 507.335 189.746 507.232 192.921V192.929Z" fill="#0AA370"/>
<path opacity="0.75" d="M512.676 183.738C512.556 184.833 512.761 185.834 513.395 186.656C514.909 188.599 517.477 188.077 520.036 186.69C521.722 184.431 522.946 181.769 523.485 179.099C519.899 179.176 515.842 181.067 512.676 183.738V183.738Z" fill="#FFF983"/>
<path d="M500.307 217.807C505.767 219.442 511.493 216.908 515.618 212.638C517.843 210.336 519.606 207.52 520.599 204.584C516.551 204.148 511.707 205.688 507.753 208.247C503.884 210.755 500.872 214.238 500.299 217.807H500.307Z" fill="#17C690"/>
<path d="M500.307 217.807C505.767 219.442 511.493 216.908 515.618 212.638C517.843 210.336 519.606 207.52 520.599 204.584C516.551 204.148 511.707 205.688 507.753 208.247C503.884 210.755 500.872 214.238 500.299 217.807H500.307Z" fill="#0AA370"/>
<path opacity="0.75" d="M507.762 208.247C507.471 209.463 507.548 210.626 508.148 211.636C509.568 214.041 512.538 213.827 515.619 212.638C517.844 210.336 519.607 207.52 520.6 204.584C516.552 204.148 511.708 205.688 507.754 208.247H507.762Z" fill="#FFF983"/>
<path d="M341.492 328.834C341.578 329.407 336.785 335.826 329.981 344.598C324.316 344.393 318.813 344.273 313.472 344.213C290.297 343.948 270.125 344.923 252.033 346.378C198.047 350.7 162.547 359.336 120.783 352.395C64.4609 343.024 0 306.163 0 249.242C0 212.621 36.1074 198.252 60.9263 199.724C68.6716 201.35 73.9178 202.454 74.2858 202.531C74.3029 202.531 74.3115 202.531 74.3115 202.531C74.3115 202.531 341.218 326.874 341.492 328.825V328.834Z" fill="#DBDAAF"/>
<path d="M391.703 155.076L197.216 260.822C197.216 260.822 78.0251 204.269 74.3108 202.54C31.7334 143.325 18.2884 49.2956 123.11 9.03751C188.427 -16.0468 242.284 19.6498 274.951 52.2653C296.766 74.0462 309.133 94.4576 309.133 94.4576L373.174 141.477L376.846 144.173L391.703 155.076V155.076Z" fill="#DBDAAF"/>
<path d="M113.877 174.794C104.258 188.401 95.049 223.713 100.27 229.481C100.27 229.481 99.525 250.209 105.327 252.426C105.327 252.426 105.892 259.598 108.16 259.598C114.006 259.606 111.746 230.209 111.609 229.798C111.472 229.387 113.877 174.794 113.877 174.794Z" fill="#FFC5D4"/>
<path d="M113.875 174.793C104.256 188.401 95.0468 223.712 100.267 229.481C100.267 229.481 99.5228 250.209 105.325 252.425C105.325 252.425 105.89 259.597 108.158 259.597C114.003 259.606 111.744 230.208 111.607 229.797C111.47 229.387 113.875 174.793 113.875 174.793Z" fill="#FF8D8D"/>
<path d="M120.784 182.48C118.421 173.545 116.539 165.56 113.655 165.56C110.77 165.56 109.179 177.302 116.316 187.212L120.784 182.48Z" fill="#FFC5D4"/>
<path d="M120.783 182.479C118.421 173.544 116.538 165.559 113.654 165.559C110.77 165.559 109.178 177.301 116.316 187.211L120.783 182.479Z" fill="#FF8D8D"/>
<path d="M497.656 239.426C491.186 264.288 483.689 259.872 479.606 288.482C475.815 315.047 448.249 314.893 442.13 345.249C422.565 348.972 401.101 350.093 378.02 347.834C354.065 345.497 332.729 344.436 313.473 344.222C268.311 307.361 188.368 242.165 187.632 242.165C186.614 242.165 146.818 134.476 146.818 134.476C146.818 133.654 152.381 98.7194 182.232 94.115C200.923 91.2309 205.348 74.1999 218.639 71.8122C231.93 69.433 247.677 83.614 266 60.909C268.91 57.2974 271.931 54.4646 274.961 52.2737C288.26 42.6542 301.868 45.2559 308.244 48.3026C308.244 48.3026 319.832 29.9023 344.017 42.851C368.203 55.7997 364.463 75.2184 401.247 78.9669C438.047 82.7154 442.814 96.3402 448.266 114.732C449.883 120.184 452.511 124.437 455.643 127.869C463.114 136.051 473.47 139.611 479.94 143.693C489.14 149.487 492.213 167.545 488.798 191.388C485.392 215.24 504.126 214.556 497.656 239.426V239.426Z" fill="#2A4055"/>
<path d="M121.861 165.56C122.075 164.943 148.16 114.27 154.87 114.27C160.869 114.27 189.839 155.469 189.839 155.469L121.852 165.551L121.861 165.56Z" fill="#8AC4BA"/>
<path d="M121.861 165.56C122.075 164.944 148.161 114.27 154.871 114.27C160.87 114.27 189.84 155.47 189.84 155.47L121.853 165.551L121.861 165.56Z" fill="#6DA399"/>
<path opacity="0.75" d="M121.861 165.56C122.075 164.944 148.161 114.27 154.871 114.27C160.87 114.27 189.84 155.47 189.84 155.47L121.853 165.551L121.861 165.56Z" fill="#FFF983"/>
<path d="M169.299 125.148C162.128 134.656 152.799 145.568 160.929 147.921C169.06 150.275 173.818 143.916 173.818 143.916C173.818 143.916 184.293 148.957 187.785 145.234C191.277 141.511 183.301 127.715 179.843 122.606C179.843 122.606 186.861 124.531 186.484 118.318C186.116 112.096 174.606 91.5991 174.606 91.5991C169.659 101.21 152.243 131.001 169.291 125.156L169.299 125.148Z" fill="#377464"/>
<path d="M169.3 125.147C162.128 134.656 152.799 145.567 160.93 147.921C169.06 150.274 173.818 143.916 173.818 143.916C173.818 143.916 184.294 148.957 187.786 145.234C191.277 141.511 183.301 127.715 179.843 122.606C179.843 122.606 186.861 124.531 186.485 118.318C186.117 112.096 174.606 91.599 174.606 91.599C169.659 101.21 152.243 131.001 169.291 125.156L169.3 125.147Z" fill="#114C3A"/>
<path d="M169.3 125.147C162.128 134.656 152.799 145.567 160.93 147.921C169.06 150.274 173.818 143.916 173.818 143.916C173.818 143.916 184.294 148.957 187.786 145.234C191.277 141.511 183.301 127.715 179.843 122.606C179.843 122.606 186.861 124.531 186.485 118.318C186.117 112.096 174.606 91.599 174.606 91.599C169.659 101.21 152.243 131.001 169.291 125.156L169.3 125.147Z" fill="#4F9982"/>
<path d="M181.205 130.462L180.315 128.905L174.7 132.148V116.435L178.68 112.926L177.499 111.583L174.7 114.039V104.308H172.912V118.891L168.684 115.186L167.503 116.529L172.912 121.279V137.805L169.018 134.93L167.948 136.367L172.912 140.03V153.407H174.7V134.219L181.205 130.462Z" fill="#17C690"/>
<path d="M187.324 138.969C192.314 138.849 203.157 135.854 199.392 120.868C194.916 103.076 183.653 100.585 178.013 120.766C174.384 133.757 182.848 139.072 187.324 138.969Z" fill="#17C690"/>
<path opacity="0.75" d="M187.325 138.969C192.314 138.849 203.158 135.854 199.392 120.869C194.916 103.076 183.653 100.585 178.013 120.766C174.385 133.757 182.849 139.072 187.325 138.969Z" fill="#FFF983"/>
<path d="M187.326 138.969C192.316 138.849 203.159 135.854 199.394 120.869C194.918 103.076 183.655 100.585 178.015 120.766C174.386 133.757 182.85 139.072 187.326 138.969Z" fill="#0AA370"/>
<path d="M194.943 124.266L193.762 123.127L189.474 127.578V114.124H187.831V121.022L185.914 118.883L184.69 119.978L187.831 123.487V132.259L183.937 128.22L182.756 129.366L187.831 134.638V156.248H189.474V129.957L194.943 124.266Z" fill="#377464"/>
<path d="M229.559 96.9137C220.83 96.9137 139.115 177.156 138.713 177.798H298.599C298.599 177.798 240.334 96.9137 229.559 96.9137V96.9137Z" fill="#8AC4BA"/>
<path d="M229.559 96.9135C220.83 96.9135 139.115 177.156 138.713 177.798H298.599C298.599 177.798 240.334 96.9135 229.559 96.9135V96.9135Z" fill="#6DA399"/>
<path opacity="0.75" d="M229.559 96.9135C220.83 96.9135 139.115 177.156 138.713 177.798H298.599C298.599 177.798 240.334 96.9135 229.559 96.9135V96.9135Z" fill="#FFF983"/>
<path d="M220.82 174.734C220.82 174.734 245.22 174.503 270.013 160.835C296.621 146.167 334.115 151.182 343.768 161.811C344.462 163.437 328.115 213.375 327.165 213.375C326.215 213.375 212.895 209.327 212.895 209.327L220.82 174.734V174.734Z" fill="#17C690"/>
<path d="M220.82 174.734C220.82 174.734 245.22 174.503 270.013 160.835C296.621 146.167 334.114 151.182 343.768 161.811C344.461 163.437 328.115 213.375 327.165 213.375C326.215 213.375 212.895 209.327 212.895 209.327L220.82 174.734V174.734Z" fill="#0AA370"/>
<path opacity="0.75" d="M220.82 174.734C220.82 174.734 245.22 174.503 270.013 160.835C296.621 146.167 334.114 151.182 343.768 161.811C344.461 163.437 328.115 213.375 327.165 213.375C326.215 213.375 212.895 209.327 212.895 209.327L220.82 174.734V174.734Z" fill="#FFF983"/>
<path d="M230.679 174.811C239.255 174.7 254.223 164.43 249.944 142.82C245.725 121.502 216.978 119.054 211.843 142.82C207.332 163.702 219.99 174.948 230.679 174.811Z" fill="#377464"/>
<path d="M230.68 174.811C239.255 174.7 254.224 164.43 249.945 142.82C245.725 121.502 216.978 119.054 211.843 142.82C207.333 163.702 219.991 174.948 230.68 174.811Z" fill="#114C3A"/>
<path d="M254.676 171.911C259.665 171.791 270.509 168.795 266.743 153.81C262.267 136.017 251.005 133.527 245.365 153.707C241.736 166.699 250.2 172.013 254.676 171.911Z" fill="#17C690"/>
<path opacity="0.75" d="M254.676 171.911C259.665 171.791 270.508 168.795 266.743 153.81C262.267 136.017 251.004 133.527 245.364 153.707C241.735 166.699 250.2 172.013 254.676 171.911Z" fill="#FFF983"/>
<path d="M254.676 171.911C259.666 171.792 270.509 168.796 266.743 153.811C262.267 136.018 251.005 133.528 245.365 153.708C241.736 166.699 250.2 172.014 254.676 171.911Z" fill="#0AA370"/>
<path d="M262.301 157.208L261.112 156.07L256.833 160.52V147.066H255.181V153.964L253.272 151.825L252.04 152.92L255.181 156.438V165.21L251.295 161.17L250.106 162.309L255.181 167.58V189.199H256.833V162.899L262.301 157.208Z" fill="#377464"/>
<path d="M230.68 174.811C239.255 174.7 254.224 164.43 249.945 142.82C245.725 121.502 216.978 119.054 211.843 142.82C207.333 163.702 219.991 174.948 230.68 174.811Z" fill="#4F9982"/>
<path d="M237.056 158.387L231.63 162.727V157.463L239.829 149.102L238.648 147.946L231.63 155.11V135.622H229.978V146.825L227.222 142.854L225.87 143.796L229.978 149.718V169.128L221.352 161.939L220.299 163.197L229.978 171.276V187.854H231.63V164.84L238.083 159.671L237.056 158.387Z" fill="#17C690"/>
<path d="M389.154 127.03L377.344 159.278C377.344 159.278 353.962 166.869 354.211 166.253C354.39 165.799 361.725 148.845 359.688 133.312C358.952 127.732 357.009 122.323 353.098 117.941C353.098 117.941 344.223 132.687 328.921 126.517C313.619 120.346 294.731 115.904 294.114 115.776C293.515 115.656 283.057 111.514 282.552 111.317C283.245 111.446 302.784 115.203 299.9 93.9354C304.718 96.0407 312.463 90.6148 306.669 69.5786C306.669 69.5786 318.822 88.2955 339.439 82.202C335.844 74.2086 346.491 67.8755 352.302 77.495C356.016 83.6398 354.108 89.9644 349.23 91.6161C349.23 91.6161 350.916 102.254 367.801 108.074C377.737 111.488 383.377 117.445 386.321 121.767C388.401 124.788 389.154 127.013 389.154 127.013V127.03Z" fill="#FFC5D4"/>
<path opacity="0.75" d="M389.153 127.03L377.343 159.278C377.343 159.278 353.962 166.869 354.21 166.253C354.39 165.799 361.724 148.845 359.687 133.312C358.951 127.732 357.008 122.323 353.097 117.941C353.097 117.941 344.222 132.687 328.92 126.516C313.618 120.346 294.73 115.904 294.114 115.776C293.515 115.656 283.056 111.514 282.552 111.317C283.245 111.445 302.783 115.202 299.899 93.9351C304.717 96.0405 312.463 90.6145 306.669 69.5783C306.669 69.5783 318.821 88.2952 339.438 82.2017C335.844 74.2083 346.49 67.8752 352.301 77.4947C356.016 83.6395 354.107 89.9641 349.229 91.6158C349.229 91.6158 350.915 102.254 367.8 108.073C377.737 111.488 383.377 117.445 386.321 121.767C388.4 124.788 389.153 127.013 389.153 127.013V127.03Z" fill="#FFF983"/>
<path d="M389.154 127.03L377.344 159.278C377.344 159.278 353.963 166.869 354.211 166.253C354.391 165.799 361.725 148.845 359.688 133.312C367.262 131.309 377.532 127.749 386.322 121.793C388.401 124.814 389.154 127.039 389.154 127.039V127.03Z" fill="#FF8D8D"/>
<path d="M425.603 347.705C410.661 349.331 394.759 349.468 378.019 347.825C354.065 345.489 332.729 344.427 313.473 344.213C290.297 343.948 270.125 344.924 252.033 346.379C255.491 334.063 261.156 329.921 261.156 329.921C261.156 329.921 314.979 219.194 328.895 192.877C337.479 176.642 358.404 155.384 373.175 141.476C382.35 132.833 389.154 127.03 389.154 127.03C392.106 134.801 389.154 140.972 395.196 147.981C395.641 148.494 396.103 148.973 396.582 149.427C411.388 163.582 443.944 153.398 443.944 153.398C443.944 153.398 471.955 164.156 473.701 222.54C475.13 270.578 445.895 320.978 425.612 347.697L425.603 347.705Z" fill="#FC865A"/>
<path opacity="0.75" d="M425.603 347.706C410.66 349.332 394.759 349.469 378.019 347.826C354.064 345.49 332.729 344.428 313.473 344.214C290.297 343.949 270.125 344.925 252.033 346.38C255.49 334.064 261.156 329.922 261.156 329.922C261.156 329.922 314.979 219.195 328.895 192.879C337.478 176.644 358.403 155.385 373.175 141.478C382.35 132.834 389.153 127.031 389.153 127.031C392.106 134.802 389.153 140.973 395.195 147.982C395.641 148.495 396.103 148.975 396.582 149.428C411.388 163.584 443.943 153.399 443.943 153.399C443.943 153.399 471.955 164.157 473.701 222.542C475.13 270.579 445.895 320.979 425.612 347.698L425.603 347.706Z" fill="#FFF983"/>
<path d="M425.603 347.706C410.66 349.332 394.759 349.469 378.019 347.826C354.064 345.49 332.729 344.428 313.473 344.214C290.297 343.949 270.125 344.925 252.033 346.38C255.49 334.064 261.156 329.922 261.156 329.922C261.156 329.922 314.979 219.195 328.895 192.879C337.478 176.644 358.403 155.385 373.175 141.478C382.35 132.834 389.153 127.031 389.153 127.031C392.106 134.802 389.153 140.973 395.195 147.982C395.641 148.495 396.103 148.975 396.582 149.428C411.388 163.584 443.943 153.399 443.943 153.399C443.943 153.399 471.955 164.157 473.701 222.542C475.13 270.579 445.895 320.979 425.612 347.698L425.603 347.706Z" fill="#EA5426"/>
<path d="M425.603 347.706C410.66 349.332 394.759 349.469 378.019 347.826C354.064 345.49 332.729 344.428 313.473 344.214C290.297 343.949 270.125 344.925 252.033 346.38C255.49 334.064 261.156 329.922 261.156 329.922C261.156 329.922 314.979 219.195 328.895 192.879C337.478 176.644 358.403 155.385 373.175 141.478C382.35 132.834 389.153 127.031 389.153 127.031C392.106 134.802 389.153 140.973 395.195 147.982C395.641 148.495 396.103 148.975 396.582 149.428C411.388 163.584 443.943 153.399 443.943 153.399C443.943 153.399 471.955 164.157 473.701 222.542C475.13 270.579 445.895 320.979 425.612 347.698L425.603 347.706Z" fill="#EA5426"/>
<path d="M356.015 215.446V215.583C356.015 239.974 348.972 262.713 336.811 281.884C314.833 316.545 276.132 339.532 232.066 339.532C199.159 339.532 169.257 326.721 147.065 305.796C128.579 288.371 115.451 265.332 110.41 239.401C108.904 231.69 108.116 223.73 108.116 215.574C108.116 197.32 112.062 179.989 119.148 164.387C140.321 153.724 167.254 151.071 217.483 173.271C276.783 199.476 326.207 189.01 343.794 161.786C351.616 178.012 356.007 196.207 356.032 215.429L356.015 215.446Z" fill="#9BD9FE"/>
<path opacity="0.75" d="M356.016 215.582C356.016 284.04 300.524 339.532 232.066 339.532C163.609 339.532 108.108 284.049 108.108 215.582C108.108 197.328 112.054 179.997 119.14 164.395C140.313 153.732 167.246 151.079 217.475 173.279C276.775 199.484 326.199 189.018 343.786 161.794C351.625 178.063 356.024 196.301 356.024 215.574L356.016 215.582Z" fill="#FFF983"/>
<path d="M356.016 215.582C356.016 284.04 300.524 339.532 232.066 339.532C163.609 339.532 108.108 284.049 108.108 215.582C108.108 197.328 112.054 179.997 119.14 164.395C140.313 153.732 167.246 151.079 217.475 173.279C276.775 199.484 326.199 189.018 343.786 161.794C351.625 178.063 356.024 196.301 356.024 215.574L356.016 215.582Z" fill="#71B2D3"/>
<path d="M296.68 323.057C270.295 337.033 232.108 341.688 213.699 342.245L213.63 339.977C231.842 339.438 269.602 334.842 295.619 321.055L296.68 323.057Z" fill="#377464"/>
<path d="M296.68 323.057C270.295 337.033 232.108 341.689 213.699 342.245L213.63 339.977C231.842 339.438 269.601 334.842 295.619 321.055L296.68 323.057Z" fill="#114C3A"/>
<path d="M219.938 340.858C212.501 334.037 199.424 337.144 192.303 344.376C200.151 349.28 215.12 347.765 219.938 340.858Z" fill="#377464"/>
<path d="M219.938 340.858C212.501 334.037 199.424 337.144 192.303 344.376C200.151 349.28 215.12 347.765 219.938 340.858Z" fill="#114C3A"/>
<path d="M219.938 340.858C212.501 334.037 199.424 337.144 192.303 344.376C200.151 349.28 215.12 347.765 219.938 340.858Z" fill="#4F9982"/>
<path d="M235.96 338.051C234.933 329.424 224.655 324.11 215.951 324.828C218.321 332.437 228.934 339.848 235.96 338.051Z" fill="#377464"/>
<path d="M235.959 338.051C234.932 329.424 224.653 324.11 215.95 324.829C218.32 332.437 228.932 339.848 235.959 338.051Z" fill="#114C3A"/>
<path d="M235.959 338.051C234.932 329.424 224.653 324.11 215.95 324.829C218.32 332.437 228.932 339.848 235.959 338.051Z" fill="#4F9982"/>
<path d="M255.96 334.909C253.735 326.514 242.823 322.688 234.299 324.614C237.706 331.811 249.259 337.674 255.96 334.909Z" fill="#377464"/>
<path d="M255.96 334.909C253.735 326.514 242.823 322.688 234.299 324.614C237.705 331.811 249.259 337.674 255.96 334.909Z" fill="#114C3A"/>
<path d="M255.96 334.909C253.735 326.514 242.823 322.688 234.299 324.614C237.705 331.811 249.259 337.674 255.96 334.909Z" fill="#4F9982"/>
<path d="M282.157 327.763C279.17 318.589 266.829 315.02 257.509 317.682C261.737 325.453 274.9 331.238 282.157 327.763Z" fill="#377464"/>
<path d="M282.157 327.763C279.17 318.589 266.829 315.02 257.509 317.682C261.737 325.452 274.899 331.238 282.157 327.763Z" fill="#114C3A"/>
<path d="M282.157 327.763C279.17 318.589 266.829 315.02 257.509 317.682C261.737 325.452 274.899 331.238 282.157 327.763Z" fill="#4F9982"/>
<path d="M269.302 332.197C271.912 341.603 263.499 351.505 254.154 354.474C253.366 345.557 261.24 333.327 269.302 332.197Z" fill="#377464"/>
<path d="M269.302 332.197C271.912 341.602 263.499 351.504 254.154 354.474C253.366 345.556 261.24 333.326 269.302 332.197Z" fill="#114C3A"/>
<path d="M269.302 332.197C271.912 341.602 263.499 351.504 254.154 354.474C253.366 345.556 261.24 333.326 269.302 332.197Z" fill="#4F9982"/>
<path d="M241.54 338.667C244.15 348.072 235.737 357.974 226.392 360.944C225.604 352.026 233.478 339.796 241.54 338.667Z" fill="#377464"/>
<path d="M241.54 338.667C244.15 348.072 235.737 357.974 226.392 360.944C225.604 352.026 233.478 339.796 241.54 338.667Z" fill="#114C3A"/>
<path d="M241.54 338.667C244.15 348.072 235.737 357.974 226.392 360.944C225.604 352.026 233.478 339.796 241.54 338.667Z" fill="#4F9982"/>
<path d="M162.444 267.086C165.499 272.324 166.081 276.834 164.772 279.607C163.463 282.38 162.222 296.758 157.78 300.592C156.256 301.901 151.994 303.827 147.048 305.804C128.562 288.379 115.434 265.341 110.393 239.409C112.25 237.423 114.903 236.14 118.189 238.545C124.736 243.354 127.355 241.899 129.538 239.717C131.728 237.535 136.093 228.189 143.222 229.798C150.351 231.416 149.478 235.01 151.952 233.29C154.434 231.561 156.325 221.659 161.563 222.532C166.8 223.405 167.237 230.063 165.345 233.29C163.463 236.508 156.616 240.436 160.253 247.574C163.89 254.703 166.218 255.576 163.745 259.803C161.272 264.023 159.38 261.84 162.436 267.086H162.444Z" fill="#17C690"/>
<path d="M162.446 267.086C165.502 272.324 166.084 276.834 164.774 279.607C163.465 282.38 162.224 296.758 157.782 300.592C156.259 301.901 151.997 303.827 147.05 305.804C128.564 288.379 115.436 265.34 110.395 239.409C112.252 237.423 114.905 236.14 118.191 238.545C124.739 243.354 127.357 241.899 129.54 239.717C131.731 237.535 136.095 228.189 143.224 229.798C150.353 231.415 149.481 235.01 151.954 233.29C154.436 231.561 156.327 221.659 161.565 222.532C166.802 223.405 167.239 230.063 165.348 233.29C163.465 236.508 156.618 240.436 160.255 247.573C163.893 254.703 166.22 255.575 163.747 259.803C161.274 264.022 159.382 261.84 162.438 267.086H162.446Z" fill="#0AA370"/>
<path opacity="0.75" d="M162.446 267.086C165.502 272.324 166.084 276.834 164.774 279.607C163.465 282.38 162.224 296.758 157.782 300.592C156.259 301.901 151.997 303.827 147.05 305.804C128.564 288.379 115.436 265.34 110.395 239.409C112.252 237.423 114.905 236.14 118.191 238.545C124.739 243.354 127.357 241.899 129.54 239.717C131.731 237.535 136.095 228.189 143.224 229.798C150.353 231.415 149.481 235.01 151.954 233.29C154.436 231.561 156.327 221.659 161.565 222.532C166.802 223.405 167.239 230.063 165.348 233.29C163.465 236.508 156.618 240.436 160.255 247.573C163.893 254.703 166.22 255.575 163.747 259.803C161.274 264.022 159.382 261.84 162.438 267.086H162.446Z" fill="#FFF983"/>
<path d="M356.016 215.446V215.582C356.016 239.974 348.972 262.713 336.811 281.883C318.274 286.582 291.255 293.403 290.416 293.488C289.141 293.608 289.783 269.106 288.251 263.629C286.719 258.143 284.931 250.997 277.365 249.336C269.8 247.676 265.152 246.529 262.602 241.497C260.052 236.473 263.107 226.109 260.428 224.962C257.75 223.816 253.667 229.182 251.502 233.298C249.328 237.406 246.778 243.345 242.824 240.958C238.87 238.57 243.2 235.943 244.493 233.298C245.785 230.645 243.072 230.577 240.907 229.438C238.733 228.283 241.164 227.906 240.008 225.219C238.861 222.54 233.923 221.471 237.569 217.945C244.459 211.312 251.108 213.477 254.326 212.844C257.544 212.202 256.466 209.395 253.351 206.074C250.227 202.762 243.954 200.332 245.614 195.616C247.266 190.9 256.971 195.231 261.695 199.827C266.411 204.422 274.575 204.422 275.208 203.276C275.85 202.12 273.805 198.937 274.447 197.661C275.089 196.386 281.088 196.249 285.632 200.469C290.177 204.679 294.49 203.652 298.59 202.257C302.68 200.845 301.123 196.249 301.499 193.185C301.876 190.13 304.572 190.002 309.039 190.13C313.515 190.25 312.617 187.443 314.534 186.305C316.442 185.149 320.139 187.195 321.603 191.02C323.049 194.846 331.12 203.062 334.44 203.276C337.752 203.481 337.504 204.679 337.247 210.961C336.991 217.251 343.367 212.082 347.449 211.064C351.531 210.045 350.889 217.696 352.935 216.669C354.03 216.122 355.049 215.711 356.007 215.454L356.016 215.446Z" fill="#17C690"/>
<path opacity="0.75" d="M356.015 215.445V215.582C356.015 239.973 348.972 262.713 336.81 281.883C318.273 286.582 291.255 293.403 290.416 293.488C289.141 293.608 289.783 269.106 288.251 263.628C286.719 258.143 284.93 250.996 277.365 249.336C269.799 247.676 265.152 246.529 262.602 241.497C260.051 236.473 263.107 226.109 260.428 224.962C257.749 223.815 253.667 229.181 251.502 233.298C249.328 237.406 246.777 243.345 242.824 240.957C238.87 238.57 243.2 235.942 244.492 233.298C245.785 230.645 243.072 230.576 240.906 229.438C238.733 228.283 241.163 227.906 240.008 225.219C238.861 222.54 233.923 221.47 237.569 217.944C244.458 211.312 251.108 213.477 254.326 212.844C257.544 212.202 256.465 209.395 253.35 206.074C250.226 202.762 243.953 200.331 245.614 195.616C247.265 190.9 256.97 195.231 261.695 199.826C266.41 204.422 274.575 204.422 275.208 203.275C275.85 202.12 273.804 198.936 274.446 197.661C275.088 196.386 281.088 196.249 285.632 200.468C290.176 204.679 294.49 203.652 298.589 202.257C302.68 200.845 301.123 196.249 301.499 193.185C301.876 190.13 304.571 190.002 309.039 190.13C313.515 190.25 312.616 187.443 314.533 186.304C316.442 185.149 320.139 187.194 321.602 191.02C323.049 194.846 331.119 203.061 334.44 203.275C337.752 203.481 337.504 204.679 337.247 210.961C336.99 217.251 343.366 212.082 347.448 211.063C351.531 210.045 350.889 217.696 352.934 216.669C354.03 216.121 355.048 215.711 356.007 215.454L356.015 215.445Z" fill="#FFF983"/>
<path d="M356.015 215.445V215.582C356.015 239.973 348.972 262.713 336.81 281.883C318.273 286.582 291.255 293.403 290.416 293.488C289.141 293.608 289.783 269.106 288.251 263.628C286.719 258.143 284.93 250.996 277.365 249.336C269.799 247.676 265.152 246.529 262.602 241.497C260.051 236.473 263.107 226.109 260.428 224.962C257.749 223.815 253.667 229.181 251.502 233.298C249.328 237.406 246.777 243.345 242.824 240.957C238.87 238.57 243.2 235.942 244.492 233.298C245.785 230.645 243.072 230.576 240.906 229.438C238.733 228.283 241.163 227.906 240.008 225.219C238.861 222.54 233.923 221.47 237.569 217.944C244.458 211.312 251.108 213.477 254.326 212.844C257.544 212.202 256.465 209.395 253.35 206.074C250.226 202.762 243.953 200.331 245.614 195.616C247.265 190.9 256.97 195.231 261.695 199.826C266.41 204.422 274.575 204.422 275.208 203.275C275.85 202.12 273.804 198.936 274.446 197.661C275.088 196.386 281.088 196.249 285.632 200.468C290.176 204.679 294.49 203.652 298.589 202.257C302.68 200.845 301.123 196.249 301.499 193.185C301.876 190.13 304.571 190.002 309.039 190.13C313.515 190.25 312.616 187.443 314.533 186.304C316.442 185.149 320.139 187.194 321.602 191.02C323.049 194.846 331.119 203.061 334.44 203.275C337.752 203.481 337.504 204.679 337.247 210.961C336.99 217.251 343.366 212.082 347.448 211.063C351.531 210.045 350.889 217.696 352.934 216.669C354.03 216.121 355.048 215.711 356.007 215.454L356.015 215.445Z" fill="#0AA370"/>
<path d="M105.327 252.435C109.075 251.048 106.311 242.678 109.075 231.193" stroke="#E27F7F" stroke-width="1.28374" stroke-miterlimit="10"/>
<path d="M100.268 229.49C103.495 230.457 103.7 226.289 108.159 212.1" stroke="#E27F7F" stroke-width="1.28374" stroke-miterlimit="10"/>
<path d="M332.549 116.495C337.59 115.776 340.44 111.779 339.533 107.654" stroke="#2A4055" stroke-width="1.28374" stroke-miterlimit="10"/>
<path d="M324.213 97.855C328.124 97.6496 331.008 92.6002 329.878 89.2111" stroke="#2A4055" stroke-width="1.28374" stroke-miterlimit="10"/>
<path d="M309.134 113.037C313.036 113.311 316.391 109.417 315.595 106.43" stroke="#2A4055" stroke-width="1.28374" stroke-miterlimit="10"/>
<path d="M303.768 113.046C304.598 107.646 306.575 102.768 311.077 101.561" stroke="#2A4055" stroke-width="1.71165" stroke-miterlimit="10"/>
<path d="M315.715 94.4573C316.519 89.2111 320.251 85.009 326.199 85.1459" stroke="#2A4055" stroke-width="1.71165" stroke-miterlimit="10"/>
<path d="M455.873 217.825C430.216 280.334 405.782 303.236 377.163 313.155C368.784 316.074 360.055 317.862 350.829 319.215C310.066 325.205 255.721 323.742 244.03 323.16C232.34 322.578 203.413 324.033 177.849 321.551C152.286 319.061 151.404 317.306 151.986 315.851C152.568 314.396 165.431 314.242 165.431 314.242C165.431 314.242 146.731 306.933 143.514 304.897C140.912 303.245 141.057 301.045 141.519 300.592C139.688 300.13 131.369 296.835 131.241 295.688C131.104 294.37 137.677 291.452 145.131 293.351C152.577 295.251 173.322 298.469 173.322 298.469C173.322 298.469 137.968 280.061 134.904 276.988C131.832 273.924 136.949 272.315 146.826 275.379C156.702 278.452 171.722 283.124 179.681 282.688C187.631 282.251 198.312 279.915 187.212 275.533C176.112 271.151 169.428 263.509 172.312 260.813C176.514 256.885 202.985 278.349 217.294 278.7C262.944 279.829 339.849 265.469 339.849 265.469C372.165 218.458 381.716 194.401 388.143 177.318C394.57 160.245 409.633 138.387 433.536 143.599C477.106 153.099 460.598 206.34 455.89 217.816L455.873 217.825Z" fill="#FFC5D4"/>
<path opacity="0.75" d="M377.163 313.155C368.784 316.073 360.055 317.862 350.829 319.214C310.066 325.205 255.721 323.741 244.03 323.159C232.34 322.577 203.413 324.032 177.849 321.55C152.286 319.06 151.404 317.306 151.986 315.851C152.568 314.396 165.431 314.242 165.431 314.242C165.431 314.242 146.731 306.933 143.513 304.896C140.912 303.244 141.057 301.045 141.519 300.591C139.688 300.129 131.369 296.834 131.241 295.687C131.104 294.369 137.677 291.451 145.131 293.351C152.577 295.251 173.322 298.469 173.322 298.469C173.322 298.469 137.968 280.06 134.904 276.988C131.831 273.924 136.949 272.315 146.825 275.379C156.702 278.451 171.721 283.124 179.681 282.687C187.631 282.251 198.312 279.915 187.212 275.533C176.112 271.151 169.428 263.508 172.312 260.812C176.514 256.884 202.985 278.348 217.294 278.699C262.944 279.829 339.849 265.468 339.849 265.468L377.171 313.146L377.163 313.155Z" fill="#FFF983"/>
<path d="M377.163 313.155C368.784 316.073 360.055 317.862 350.829 319.214C310.066 325.205 255.721 323.741 244.03 323.159C232.34 322.577 203.413 324.032 177.849 321.55C152.286 319.06 151.404 317.306 151.986 315.851C152.568 314.396 165.431 314.242 165.431 314.242C165.431 314.242 146.731 306.933 143.513 304.896C140.912 303.244 141.057 301.045 141.519 300.591C139.688 300.129 131.369 296.834 131.241 295.687C131.104 294.369 137.677 291.451 145.131 293.351C152.577 295.251 173.322 298.469 173.322 298.469C173.322 298.469 137.968 280.06 134.904 276.988C131.831 273.924 136.949 272.315 146.825 275.379C156.702 278.451 171.721 283.124 179.681 282.687C187.631 282.251 198.312 279.915 187.212 275.533C176.112 271.151 169.428 263.508 172.312 260.812C176.514 256.884 202.985 278.348 217.294 278.699C262.944 279.829 339.849 265.468 339.849 265.468L377.171 313.146L377.163 313.155Z" fill="#FF8D8D"/>
<path opacity="0.75" d="M455.872 217.824C430.215 280.334 405.781 303.236 377.162 313.155L339.839 265.477C372.155 218.466 381.706 194.409 388.134 177.326C394.561 160.253 409.623 138.395 433.527 143.607C477.097 153.106 460.588 206.347 455.881 217.824H455.872Z" fill="#FFF983"/>
<path d="M455.872 217.824C430.215 280.334 405.781 303.236 377.162 313.155L339.839 265.477C372.155 218.466 381.706 194.409 388.134 177.326C394.561 160.253 409.623 138.395 433.527 143.607C477.097 153.106 460.588 206.347 455.881 217.824H455.872Z" fill="#FF8D8D"/>
<path d="M391.978 333.96C404.088 333.96 413.904 324.144 413.904 312.034C413.904 299.925 404.088 290.108 391.978 290.108C379.868 290.108 370.052 299.925 370.052 312.034C370.052 324.144 379.868 333.96 391.978 333.96Z" fill="#FF8D8D"/>
<path d="M285.77 170.891C300.969 170.891 289.852 128.904 283.296 128.913C277.982 128.913 266.864 170.891 285.77 170.891Z" fill="#17C690"/>
<path d="M285.77 170.891C300.969 170.891 289.852 128.904 283.296 128.913C277.982 128.913 266.865 170.891 285.77 170.891Z" fill="#0AA370"/>
<path opacity="0.75" d="M285.77 170.891C300.969 170.891 289.852 128.904 283.296 128.913C277.982 128.913 266.865 170.891 285.77 170.891Z" fill="#FFF983"/>
<path d="M285.11 139.038H283.467V179.407H285.11V139.038Z" fill="#377464"/>
<path d="M280.833 159.554L279.63 160.686L283.701 165.011L284.904 163.879L280.833 159.554Z" fill="#377464"/>
<path d="M286.938 150.887L283.644 154.948L284.92 155.983L288.214 151.922L286.938 150.887Z" fill="#377464"/>
<path d="M281.26 143.981L280.122 145.167L283.711 148.608L284.849 147.422L281.26 143.981Z" fill="#377464"/>
<path d="M299.778 152.663C293.189 161.401 284.622 171.423 292.093 173.588C299.564 175.753 303.929 169.908 303.929 169.908C303.929 169.908 313.549 174.538 316.758 171.114C319.967 167.691 312.642 155.025 309.466 150.326C309.466 150.326 315.911 152.098 315.568 146.381C315.226 140.664 304.657 121.836 304.657 121.836C300.112 130.66 284.117 158.029 299.778 152.663V152.663Z" fill="#377464"/>
<path d="M299.778 152.663C293.189 161.401 284.622 171.422 292.093 173.588C299.564 175.753 303.929 169.908 303.929 169.908C303.929 169.908 313.549 174.538 316.758 171.114C319.967 167.691 312.642 155.025 309.466 150.326C309.466 150.326 315.911 152.098 315.568 146.381C315.226 140.664 304.657 121.836 304.657 121.836C300.112 130.659 284.117 158.029 299.778 152.663V152.663Z" fill="#114C3A"/>
<path d="M299.778 152.663C293.189 161.401 284.622 171.422 292.093 173.588C299.564 175.753 303.929 169.908 303.929 169.908C303.929 169.908 313.549 174.538 316.758 171.114C319.967 167.691 312.642 155.025 309.466 150.326C309.466 150.326 315.911 152.098 315.568 146.381C315.226 140.664 304.657 121.836 304.657 121.836C300.112 130.659 284.117 158.029 299.778 152.663V152.663Z" fill="#4F9982"/>
<path d="M310.716 157.541L309.894 156.112L304.742 159.09V144.661L308.397 141.435L307.31 140.202L304.742 142.462V133.518H303.09V146.912L299.214 143.506L298.127 144.747L303.09 149.103V164.285L299.522 161.649L298.537 162.967L303.09 166.339V178.62H304.742V160.99L310.716 157.541Z" fill="#17C690"/>
<path d="M141.845 300.592L175.325 310.597" stroke="#E27F7F" stroke-width="1.28374" stroke-miterlimit="10"/>
<path d="M165.431 314.251L174.083 316.647" stroke="#E27F7F" stroke-width="1.28374" stroke-miterlimit="10"/>
<path d="M140.407 178.628C137.351 180.982 141.203 182.36 143.856 185.501C146.509 188.641 143.59 191.953 143.325 194.872C143.06 197.79 152.209 200.443 154.194 199.117C156.18 197.79 158.833 199.51 160.424 201.898C162.016 204.286 169.967 199.51 166.527 195.668C163.078 191.825 154.596 192.356 156.453 189.035C158.311 185.723 164.806 180.648 161.888 179.407C158.97 178.166 156.188 180.819 152.611 180.023C149.033 179.227 145.319 174.854 140.415 178.628H140.407Z" fill="#17C690"/>
<path d="M140.407 178.628C137.352 180.981 141.203 182.359 143.856 185.5C146.509 188.641 143.591 191.953 143.326 194.871C143.06 197.79 152.209 200.443 154.195 199.116C156.18 197.79 158.833 199.51 160.425 201.898C162.017 204.286 169.967 199.51 166.527 195.667C163.078 191.825 154.597 192.355 156.454 189.035C158.311 185.723 164.807 180.648 161.888 179.407C158.97 178.166 156.189 180.819 152.611 180.023C149.034 179.227 145.32 174.854 140.416 178.628H140.407Z" fill="#0AA370"/>
<path d="M180.922 236.191C178.662 241.728 179.005 244.099 182.325 245.502C185.646 246.906 181.684 250.731 184.747 252.777C187.811 254.822 193.853 250.68 192.407 247.676C190.961 244.672 189.403 241.677 192.63 234.274C195.856 226.871 185.133 225.853 180.922 236.191V236.191Z" fill="#17C690"/>
<path d="M180.922 236.191C178.663 241.728 179.005 244.099 182.326 245.502C185.646 246.906 181.684 250.732 184.748 252.777C187.812 254.822 193.854 250.68 192.407 247.676C190.961 244.672 189.403 241.677 192.63 234.274C195.856 226.871 185.133 225.853 180.922 236.191V236.191Z" fill="#0AA370"/>
<path d="M315.716 103.607C324.214 108.511 324.214 114.57 324.214 114.57C324.214 114.57 331.275 111.386 330.855 107.655C330.855 107.655 323.769 97.864 315.716 103.607Z" fill="#FF8D8D"/>
<path d="M342.741 105.168C346.401 103.965 348.392 100.023 347.189 96.3634C345.986 92.704 342.044 90.7127 338.384 91.9159C334.725 93.1191 332.733 97.061 333.937 100.721C335.14 104.38 339.082 106.371 342.741 105.168Z" fill="#FF8D8D"/>
<path d="M344.923 85.7368C342.167 82.7329 342.433 76.3998 345.839 77.0588C352.797 78.411 350.494 91.8047 344.923 85.7368Z" fill="#FF8D8D"/>
<path d="M111.968 139.988L113.825 140.818C126.619 112.294 157.669 84.9757 173.998 73.3365L172.817 71.6847C156.325 83.4438 124.942 111.07 111.968 139.988Z" fill="#17C690"/>
<path d="M111.968 139.988L113.825 140.818C126.619 112.294 157.669 84.9757 173.998 73.3365L172.817 71.6847C156.325 83.4438 124.942 111.07 111.968 139.988Z" fill="#0AA370"/>
<path d="M168.335 75.4841C174.069 76.785 179.786 73.7811 183.731 69.0997C185.862 66.575 187.48 63.5539 188.301 60.4729C184.108 60.3103 179.23 62.2274 175.344 65.1286C171.544 67.9785 168.686 71.7699 168.343 75.4841H168.335Z" fill="#17C690"/>
<path d="M168.335 75.4841C174.069 76.7849 179.786 73.781 183.731 69.0996C185.862 66.5749 187.48 63.5538 188.302 60.4729C184.108 60.3103 179.23 62.2273 175.344 65.1286C171.544 67.9785 168.686 71.7698 168.344 75.4841H168.335Z" fill="#0AA370"/>
<path opacity="0.75" d="M175.336 65.1286C175.113 66.4037 175.284 67.5848 175.969 68.5947C177.604 70.9739 180.642 70.5374 183.731 69.0996C185.862 66.5749 187.48 63.5538 188.302 60.4729C184.108 60.3103 179.23 62.2273 175.344 65.1286H175.336Z" fill="#FFF983"/>
<path d="M146.743 95.519C150.132 99.2247 155.601 99.9008 160.65 98.5401C163.38 97.8041 165.982 96.4775 168.053 94.7145C165.195 92.5578 160.839 91.5308 156.696 91.6678C152.64 91.8133 148.788 93.0799 146.743 95.519Z" fill="#17C690"/>
<path d="M146.743 95.5189C150.132 99.2247 155.601 99.9008 160.651 98.54C163.381 97.804 165.982 96.4775 168.054 94.7144C165.195 92.5578 160.839 91.5308 156.697 91.6677C152.64 91.8132 148.789 93.0798 146.743 95.5189Z" fill="#0AA370"/>
<path opacity="0.75" d="M156.696 91.6677C155.926 92.4551 155.464 93.3708 155.455 94.4063C155.438 96.8711 157.783 98.0436 160.65 98.54C163.38 97.804 165.982 96.4775 168.053 94.7144C165.194 92.5578 160.838 91.5308 156.696 91.6677Z" fill="#FFF983"/>
<path d="M134.085 108.57C138.013 111.694 143.524 111.506 148.291 109.375C150.867 108.219 153.229 106.499 155.01 104.428C151.843 102.742 147.384 102.417 143.31 103.204C139.331 103.983 135.728 105.84 134.085 108.57V108.57Z" fill="#17C690"/>
<path d="M134.085 108.57C138.013 111.694 143.525 111.505 148.292 109.374C150.868 108.219 153.23 106.499 155.01 104.428C151.843 102.742 147.384 102.417 143.311 103.204C139.331 103.983 135.728 105.84 134.085 108.57V108.57Z" fill="#0AA370"/>
<path opacity="0.75" d="M143.311 103.204C142.669 104.102 142.361 105.078 142.515 106.105C142.891 108.536 145.382 109.332 148.292 109.374C150.868 108.219 153.23 106.499 155.01 104.428C151.843 102.742 147.384 102.417 143.311 103.204V103.204Z" fill="#FFF983"/>
<path d="M120.442 127.698C124.371 130.821 129.882 130.633 134.649 128.502C137.225 127.347 139.587 125.626 141.367 123.555C138.201 121.869 133.742 121.544 129.668 122.332C125.688 123.11 122.085 124.967 120.442 127.698Z" fill="#17C690"/>
<path d="M120.443 127.697C124.371 130.821 129.882 130.633 134.649 128.502C137.225 127.346 139.587 125.626 141.367 123.555C138.201 121.869 133.742 121.544 129.668 122.331C125.689 123.11 122.086 124.967 120.443 127.697Z" fill="#0AA370"/>
<path opacity="0.75" d="M129.67 122.331C129.028 123.23 128.72 124.206 128.874 125.233C129.25 127.663 131.741 128.459 134.65 128.502C137.226 127.346 139.589 125.626 141.369 123.555C138.202 121.869 133.743 121.544 129.67 122.331V122.331Z" fill="#FFF983"/>
<path d="M156.353 86.1307C152.956 82.4335 152.767 76.922 154.556 72.0095C155.523 69.3565 157.072 66.8831 159.015 64.9661C160.915 68.0043 161.557 72.4374 161.052 76.5454C160.555 80.5678 158.955 84.2992 156.345 86.1307H156.353Z" fill="#17C690"/>
<path d="M156.353 86.1305C152.956 82.4334 152.768 76.9218 154.556 72.0094C155.523 69.3563 157.072 66.883 159.015 64.9659C160.915 68.0041 161.557 72.4373 161.052 76.5453C160.556 80.5677 158.955 84.2991 156.345 86.1305H156.353Z" fill="#0AA370"/>
<path opacity="0.75" d="M161.061 76.5539C160.213 77.2557 159.263 77.6323 158.228 77.5553C155.772 77.3499 154.805 74.9193 154.565 72.0181C155.532 69.365 157.081 66.8917 159.024 64.9746C160.924 68.0128 161.566 72.446 161.061 76.5539Z" fill="#FFF983"/>
<path d="M142.266 99.4899C138.869 95.7927 138.681 90.2812 140.469 85.3688C141.436 82.7157 142.985 80.2424 144.928 78.3253C146.828 81.3635 147.47 85.7967 146.965 89.9047C146.469 93.927 144.868 97.6584 142.258 99.4899H142.266Z" fill="#17C690"/>
<path d="M142.267 99.49C138.869 95.7928 138.681 90.2813 140.47 85.3688C141.437 82.7158 142.986 80.2424 144.928 78.3254C146.828 81.3635 147.47 85.7967 146.965 89.9047C146.469 93.9271 144.869 97.6585 142.258 99.49H142.267Z" fill="#0AA370"/>
<path opacity="0.75" d="M146.974 89.9129C146.127 90.6147 145.177 90.9913 144.141 90.9142C141.685 90.7088 140.718 88.2783 140.478 85.377C141.445 82.724 142.994 80.2506 144.937 78.3336C146.837 81.3718 147.479 85.8049 146.974 89.9129Z" fill="#FFF983"/>
<path d="M125.243 118.926C120.887 115.255 119.869 109.075 121.178 103.281C121.889 100.158 123.275 97.1366 125.184 94.7061C127.768 97.8555 129.129 102.751 129.163 107.458C129.189 112.062 127.922 116.495 125.252 118.935L125.243 118.926Z" fill="#17C690"/>
<path d="M125.243 118.926C120.887 115.254 119.869 109.075 121.178 103.281C121.888 100.158 123.275 97.1365 125.183 94.7059C127.768 97.8554 129.129 102.751 129.163 107.458C129.189 112.062 127.922 116.495 125.252 118.934L125.243 118.926Z" fill="#0AA370"/>
<path opacity="0.75" d="M129.154 107.45C128.298 108.365 127.28 108.93 126.107 108.981C123.317 109.11 121.871 106.508 121.177 103.273C121.888 100.149 123.274 97.1282 125.183 94.6977C127.767 97.8471 129.128 102.742 129.162 107.45H129.154Z" fill="#FFF983"/>
<path d="M305.976 117.025C265.64 88.8256 251.134 100.063 246.436 114.235C235.395 108.98 223.414 107.808 216.884 122.793H326.199C322.921 112.07 309.433 113.978 305.976 117.025Z" fill="white"/>
<path d="M321.707 13.547C291.744 -7.40365 280.969 0.949223 277.486 11.4759C269.287 7.57333 260.386 6.70038 255.534 17.8347H336.735C334.296 9.86694 324.283 11.2876 321.715 13.547H321.707Z" fill="white"/>
<path d="M91.531 144.977C122.923 123.033 134.211 131.771 137.866 142.803C146.458 138.712 155.778 137.805 160.87 149.461H75.7924C78.3427 141.117 88.8352 142.597 91.531 144.968V144.977Z" fill="white"/>
<path d="M132.782 283.637C127.458 266.632 113.594 274.36 109.657 277.818C54.7559 239.434 42.1752 264.287 40.1298 283.637H132.782Z" fill="white"/>
<path d="M543.091 68.9703C537.768 51.965 523.903 59.6932 519.966 63.1507C465.065 24.7669 452.484 49.6201 450.439 68.9703H543.091Z" fill="white"/>
<path d="M151.602 175.598H199.169C185.039 165.268 162.017 151.729 151.602 175.598Z" fill="white"/>
<path d="M320.73 228.026H360.414C348.63 219.408 329.416 208.111 320.73 228.026Z" fill="white"/>
<path d="M241.121 257.44H327.457C320.105 242.609 311.735 244.363 304.255 250.594C277.887 239.434 251.896 237.405 241.121 257.44Z" fill="white"/>
<path d="M207.975 137.018C224.424 137.018 212.391 91.5818 205.296 91.5903C199.545 91.5903 187.512 137.018 207.975 137.018Z" fill="#17C690"/>
<path d="M207.975 137.018C224.424 137.018 212.391 91.5819 205.296 91.5905C199.545 91.5905 187.512 137.018 207.975 137.018Z" fill="#0AA370"/>
<path opacity="0.75" d="M207.975 137.018C224.424 137.018 212.391 91.5819 205.296 91.5905C199.545 91.5905 187.512 137.018 207.975 137.018Z" fill="#FFF983"/>
<path d="M207.264 102.554H205.484V146.235H207.264V102.554Z" fill="#377464"/>
<path d="M202.618 124.745L201.322 125.965L205.727 130.645L207.024 129.425L202.618 124.745Z" fill="#377464"/>
<path d="M209.243 115.366L205.674 119.766L207.056 120.888L210.625 116.488L209.243 115.366Z" fill="#377464"/>
<path d="M203.099 107.89L201.867 109.175L205.752 112.901L206.984 111.616L203.099 107.89Z" fill="#377464"/>
<path d="M356.305 211.766L354.799 211.74C355.236 188.488 342.997 160.254 335.706 147.245L337.024 146.509C344.392 159.655 356.75 188.197 356.314 211.775L356.305 211.766Z" fill="#17C690"/>
<path d="M356.307 211.766L354.801 211.741C355.237 188.488 342.999 160.254 335.707 147.245L337.025 146.509C344.394 159.655 356.752 188.197 356.315 211.775L356.307 211.766Z" fill="#0AA370"/>
<path d="M338.838 150.482C334.567 149.54 331.674 145.706 330.502 141.307C329.869 138.928 329.74 136.386 330.168 134.05C333.044 135.265 335.714 138.107 337.417 141.299C339.077 144.423 339.796 147.88 338.846 150.49L338.838 150.482Z" fill="#17C690"/>
<path d="M338.838 150.482C334.567 149.54 331.674 145.706 330.502 141.307C329.869 138.928 329.74 136.386 330.168 134.05C333.044 135.265 335.714 138.107 337.417 141.299C339.077 144.423 339.796 147.88 338.846 150.49L338.838 150.482Z" fill="#0AA370"/>
<path opacity="0.75" d="M337.409 141.291C337.152 142.215 336.664 142.959 335.885 143.422C334.037 144.5 332.128 143.25 330.502 141.299C329.869 138.92 329.74 136.378 330.168 134.042C333.044 135.257 335.714 138.098 337.417 141.291H337.409Z" fill="#FFF983"/>
<path d="M347.012 170.816C343.563 172.236 339.66 170.953 336.691 168.436C335.09 167.076 333.755 165.355 332.916 163.515C335.527 162.968 338.787 163.661 341.526 165.064C344.205 166.451 346.396 168.522 347.003 170.816H347.012Z" fill="#17C690"/>
<path d="M347.011 170.816C343.563 172.236 339.66 170.952 336.69 168.436C335.09 167.076 333.755 165.355 332.916 163.515C335.526 162.968 338.787 163.661 341.526 165.064C344.204 166.451 346.395 168.522 347.003 170.816H347.011Z" fill="#0AA370"/>
<path opacity="0.75" d="M341.534 165.064C341.808 165.843 341.825 166.596 341.5 167.298C340.73 168.958 338.778 169.01 336.69 168.436C335.09 167.076 333.755 165.355 332.916 163.515C335.526 162.968 338.787 163.661 341.526 165.064H341.534Z" fill="#FFF983"/>
<path d="M351.392 183.61C347.764 184.465 344.109 182.591 341.576 179.639C340.207 178.047 339.163 176.138 338.624 174.187C341.285 174.059 344.4 175.248 346.882 177.071C349.313 178.86 351.153 181.248 351.392 183.61V183.61Z" fill="#17C690"/>
<path d="M351.392 183.609C347.764 184.465 344.109 182.591 341.576 179.638C340.207 178.047 339.162 176.138 338.623 174.187C341.285 174.058 344.4 175.248 346.882 177.071C349.313 178.86 351.153 181.247 351.392 183.609V183.609Z" fill="#0AA370"/>
<path opacity="0.75" d="M346.882 177.071C347.028 177.876 346.925 178.637 346.497 179.279C345.47 180.803 343.545 180.546 341.568 179.647C340.198 178.055 339.154 176.147 338.615 174.196C341.277 174.067 344.392 175.257 346.874 177.08L346.882 177.071Z" fill="#FFF983"/>
<path d="M354.508 200.803C350.879 201.659 347.225 199.785 344.692 196.832C343.322 195.24 342.278 193.332 341.739 191.381C344.401 191.252 347.516 192.442 349.998 194.265C352.428 196.053 354.268 198.441 354.508 200.803V200.803Z" fill="#17C690"/>
<path d="M354.51 200.803C350.881 201.659 347.226 199.785 344.693 196.832C343.324 195.24 342.28 193.332 341.741 191.38C344.402 191.252 347.517 192.442 349.999 194.265C352.43 196.053 354.27 198.441 354.51 200.803V200.803Z" fill="#0AA370"/>
<path opacity="0.75" d="M349.999 194.264C350.144 195.069 350.041 195.83 349.614 196.472C348.587 197.996 346.661 197.739 344.684 196.84C343.315 195.248 342.27 193.34 341.731 191.389C344.393 191.26 347.508 192.45 349.99 194.273L349.999 194.264Z" fill="#FFF983"/>
<path d="M343.521 161.444C346.978 160.032 348.861 156.386 349.203 152.509C349.392 150.421 349.135 148.256 348.433 146.356C346.191 147.794 344.351 150.575 343.384 153.502C342.442 156.369 342.34 159.382 343.512 161.444H343.521Z" fill="#17C690"/>
<path d="M343.521 161.444C346.978 160.032 348.861 156.386 349.204 152.509C349.392 150.421 349.135 148.256 348.433 146.356C346.191 147.794 344.351 150.575 343.384 153.502C342.443 156.369 342.34 159.382 343.512 161.444H343.521Z" fill="#0AA370"/>
<path opacity="0.75" d="M343.392 153.51C343.743 154.255 344.265 154.811 344.984 155.085C346.704 155.727 348.125 154.392 349.203 152.518C349.392 150.429 349.135 148.264 348.433 146.364C346.191 147.802 344.351 150.583 343.384 153.51H343.392Z" fill="#FFF983"/>
<path d="M348.757 174.906C352.214 173.494 354.097 169.848 354.439 165.971C354.628 163.883 354.371 161.718 353.669 159.818C351.427 161.264 349.587 164.037 348.62 166.964C347.678 169.831 347.576 172.844 348.748 174.906H348.757Z" fill="#17C690"/>
<path d="M348.756 174.906C352.214 173.494 354.097 169.848 354.439 165.971C354.627 163.883 354.371 161.718 353.669 159.818C351.427 161.264 349.587 164.037 348.62 166.964C347.678 169.831 347.575 172.844 348.748 174.906H348.756Z" fill="#0AA370"/>
<path opacity="0.75" d="M348.629 166.964C348.98 167.709 349.502 168.265 350.221 168.539C351.941 169.181 353.361 167.845 354.44 165.971C354.628 163.883 354.371 161.718 353.669 159.818C351.427 161.264 349.587 164.037 348.62 166.964H348.629Z" fill="#FFF983"/>
<path d="M354.056 193.375C358.155 192.289 360.8 188.454 361.75 184.141C362.263 181.813 362.289 179.34 361.775 177.098C359.037 178.399 356.572 181.257 355.057 184.415C353.585 187.505 353.029 190.885 354.056 193.375V193.375Z" fill="#17C690"/>
<path d="M354.056 193.376C358.155 192.289 360.8 188.455 361.75 184.141C362.263 181.813 362.289 179.34 361.775 177.098C359.037 178.399 356.572 181.257 355.057 184.415C353.585 187.505 353.029 190.885 354.056 193.376V193.376Z" fill="#0AA370"/>
<path opacity="0.75" d="M355.056 184.415C355.347 185.305 355.843 186.007 356.622 186.418C358.462 187.393 360.259 186.093 361.748 184.141C362.262 181.813 362.288 179.34 361.774 177.098C359.036 178.399 356.571 181.257 355.056 184.415V184.415Z" fill="#FFF983"/>
</g>
<defs>
<clipPath id="clip0_1_167">
<rect width="565" height="360.363" fill="white" transform="translate(0 0.590057)"/>
</clipPath>
</defs>
</svg>
